<svg width="25" height="34" viewBox="0 0 25 34" fill="none" xmlns="http://www.w3.org/2000/svg">
<path d="M9.00804 33.4949C10.2503 33.4949 10.5 32.575 10.5 31.3615V16.9949V2.62839C10.5 1.41486 10.2503 0.494934 9.00804 0.494934C7.76575 0.494934 7.5 1.22717 7.5 2.4407V16.8072V31.1738C7.5 32.3873 7.76575 33.4949 9.00804 33.4949ZM22.7915 33.4949C24.0338 33.4949 24.5 32.575 24.5 31.3615V18.4949V5.62839C24.5 4.41486 24.0338 3.49493 22.7915 3.49493C21.5492 3.49493 21.5 4.41486 21.5 5.62839V18.4949V31.3615C21.5 32.575 21.5492 33.4949 22.7915 33.4949Z" fill="white" fill-opacity="0.8"/>
<path d="M2.2085 33.4949C3.45079 33.4949 3.57442 32.441 3.57442 31.2275V25.861V20.4944C3.57442 19.2809 3.45079 18.4949 2.2085 18.4949C0.96622 18.4949 0.5 19.2809 0.5 20.4944L0.5 25.861L0.5 31.2275C0.5 32.441 0.96622 33.4949 2.2085 33.4949ZM15.9919 33.4949C17.2342 33.4949 17.5 32.575 17.5 31.3615V22.2449V13.1284C17.5 11.9149 17.2342 10.9949 15.9919 10.9949C14.7497 10.9949 14.5 11.9149 14.5 13.1284V22.2449V31.3615C14.5 32.575 14.7497 33.4949 15.9919 33.4949Z" fill="white" fill-opacity="0.8"/>
</svg>
