<svg width="32" height="33" viewBox="0 0 32 33" fill="none" xmlns="http://www.w3.org/2000/svg">
<path d="M15.7498 32.1821C24.363 32.1821 31.4723 25.0728 31.4723 16.4749C31.4723 7.87691 24.3478 0.767639 15.7346 0.767639C7.13668 0.767639 0.0426025 7.87691 0.0426025 16.4749C0.0426025 25.0728 7.15187 32.1821 15.7498 32.1821ZM15.7498 29.0528C8.77728 29.0528 3.20228 23.4474 3.20228 16.4749C3.20228 9.50232 8.77728 3.91212 15.7346 3.91212C22.7072 3.91212 28.3126 9.50232 28.3278 16.4749C28.343 23.4474 22.7224 29.0528 15.7498 29.0528ZM2.71538 18.3889H15.7346C16.4334 18.3889 16.9651 17.8572 16.9651 17.1736V3.71022C16.9651 3.02664 16.4334 2.49496 15.7346 2.49496C15.0662 2.49496 14.5346 3.02664 14.5346 3.71022V15.9584H2.71538C2.0318 15.9584 1.50012 16.4901 1.50012 17.1736C1.50012 17.8572 2.0318 18.3889 2.71538 18.3889Z" fill="white" fill-opacity="0.8"/>
</svg>
